<mxfile host="app.diagrams.net" modified="2022-10-19T09:31:57.263Z" agent="5.0 (Macintosh)" etag="iUbM2D81eFWAZLt7ZTGv" version="20.4.1" type="github">
  <diagram id="Gvhw54aPQ4VG8n3-sBe9" name="第 1 页">
    <mxGraphModel dx="1018" dy="586" grid="1" gridSize="10" guides="1" tooltips="1" connect="1" arrows="1" fold="1" page="1" pageScale="1" pageWidth="827" pageHeight="1169" math="0" shadow="0">
      <root>
        <mxCell id="0" />
        <mxCell id="1" parent="0" />
        <mxCell id="pE_Rm_OiDk3MA9YsZCF9-2" style="edgeStyle=orthogonalEdgeStyle;rounded=0;orthogonalLoop=1;jettySize=auto;html=1;" parent="1" source="pE_Rm_OiDk3MA9YsZCF9-1" edge="1">
          <mxGeometry relative="1" as="geometry">
            <mxPoint x="620" y="190" as="targetPoint" />
          </mxGeometry>
        </mxCell>
        <mxCell id="pE_Rm_OiDk3MA9YsZCF9-1" value="" style="rounded=0;whiteSpace=wrap;html=1;" parent="1" vertex="1">
          <mxGeometry x="280" y="190" width="120" height="60" as="geometry" />
        </mxCell>
      </root>
    </mxGraphModel>
  </diagram>
</mxfile>
